<svg width="28" height="29" viewBox="0 0 28 29" fill="none" xmlns="http://www.w3.org/2000/svg">
<path d="M13.125 13.625L13.1728 13.6017C13.3224 13.5269 13.4903 13.4966 13.6566 13.5143C13.8229 13.5321 13.9806 13.5971 14.1111 13.7017C14.2416 13.8063 14.3394 13.946 14.3929 14.1045C14.4464 14.2629 14.4534 14.4334 14.413 14.5957L13.587 17.9043C13.5463 18.0667 13.5531 18.2373 13.6065 18.396C13.6599 18.5546 13.7576 18.6946 13.8882 18.7994C14.0187 18.9041 14.1766 18.9692 14.343 18.987C14.5094 19.0047 14.6775 18.9744 14.8272 18.8995L14.875 18.875M24.5 14.5C24.5 15.8789 24.2284 17.2443 23.7007 18.5182C23.1731 19.7921 22.3996 20.9496 21.4246 21.9246C20.4496 22.8996 19.2921 23.6731 18.0182 24.2007C16.7443 24.7284 15.3789 25 14 25C12.6211 25 11.2557 24.7284 9.98182 24.2007C8.70791 23.6731 7.55039 22.8996 6.57538 21.9246C5.60036 20.9496 4.82694 19.7921 4.29926 18.5182C3.77159 17.2443 3.5 15.8789 3.5 14.5C3.5 11.7152 4.60625 9.04451 6.57538 7.07538C8.54451 5.10625 11.2152 4 14 4C16.7848 4 19.4555 5.10625 21.4246 7.07538C23.3938 9.04451 24.5 11.7152 24.5 14.5ZM14 10.125H14.0093V10.1343H14V10.125Z" stroke="#994242" stroke-linecap="round" stroke-linejoin="round"/>
</svg>
